<?xml version="1.0" encoding="UTF-8" standalone="no"?>
<!-- Created with Inkscape (http://www.inkscape.org/) -->

<svg
   width="124.86141mm"
   height="105.71175mm"
   viewBox="0 0 124.86141 105.71175"
   version="1.1"
   id="svg1"
   sodipodi:docname="radcat-head.svg"
   inkscape:version="1.4.2 (ebf0e940d0, 2025-05-08)"
   xmlns:inkscape="http://www.inkscape.org/namespaces/inkscape"
   xmlns:sodipodi="http://sodipodi.sourceforge.net/DTD/sodipodi-0.dtd"
   xmlns="http://www.w3.org/2000/svg"
   xmlns:svg="http://www.w3.org/2000/svg">
  <sodipodi:namedview
     id="namedview1"
     pagecolor="#ffffff"
     bordercolor="#000000"
     borderopacity="0.25"
     inkscape:showpageshadow="2"
     inkscape:pageopacity="0.0"
     inkscape:pagecheckerboard="0"
     inkscape:deskcolor="#d1d1d1"
     inkscape:document-units="mm"
     inkscape:zoom="0.42331174"
     inkscape:cx="251.58764"
     inkscape:cy="687.43665"
     inkscape:window-width="1920"
     inkscape:window-height="1080"
     inkscape:window-x="0"
     inkscape:window-y="0"
     inkscape:window-maximized="0"
     inkscape:current-layer="layer1" />
  <defs
     id="defs1" />
  <g
     inkscape:label="Layer 1"
     inkscape:groupmode="layer"
     id="layer1"
     transform="translate(-86.012244,-105.04591)">
    <g
       id="g13"
       transform="matrix(0.26261277,0,0,0.2646249,294.51527,-5.5926511)"
       style="display:inline">
      <path
         id="path1"
         style="fill:#e3a856;fill-opacity:1;stroke:none;stroke-width:18;stroke-dasharray:none;stroke-opacity:1"
         d="m -713.84236,427.21219 c -0.84596,0.0445 -1.66065,0.15761 -2.4414,0.3418 -24.98411,5.89394 -21.7304,101.99233 -14.51758,133.27929 0.95112,4.12566 -8.65551,19.70029 -13.66602,33.90039 -10.31243,29.2261 -7.12932,69.01156 -3.16796,85.59961 11.61194,48.62454 58.44052,76.73099 75.91015,85.8711 13.16226,6.88649 33.88116,16.54166 57.07617,24.3164 29.48549,9.88326 59.58102,18.05274 63.47461,18.05274 3.89359,0 33.99108,-8.16948 63.47657,-18.05274 23.19501,-7.77474 43.91195,-17.42991 57.07421,-24.3164 17.46963,-9.14011 64.30017,-37.24656 75.91211,-85.8711 3.96136,-16.58805 7.14446,-56.37351 -3.16796,-85.59961 -5.01052,-14.2001 -14.61714,-29.77473 -13.66602,-33.90039 7.21282,-31.28696 10.46653,-127.38535 -14.51758,-133.27929 -24.98412,-5.89394 -84.77247,61.94593 -88.72266,62.84375 -3.95017,0.89782 -30.47608,-11.31038 -76.38912,-11.65821 -45.91304,0.34783 -72.43804,12.55603 -76.38822,11.65821 -3.82674,-0.86977 -60.05448,-64.56403 -86.2793,-63.18555 z"
         inkscape:label="fill"
         sodipodi:nodetypes="scssssssssssssscss" />
      <path
         style="display:inline;fill:#b77135;fill-opacity:1;stroke:none;stroke-width:18;stroke-dasharray:none;stroke-opacity:1"
         d="m -604.90649,486.37606 c 0,0 -0.57622,13.824 -0.70711,20.85964 -0.16459,8.84693 -0.40613,16.20567 1.23744,26.51651 0.89822,5.63491 4.71857,13.15893 10.78337,13.43503 6.06481,0.27609 10.72907,-7.77477 11.66727,-14.14214 1.57288,-10.67482 1.8282,-17.30024 2.12132,-25.98617 0.28422,-8.42239 -0.35355,-25.27907 -0.35355,-25.27907 z"
         id="path3"
         sodipodi:nodetypes="cssssscc"
         inkscape:label="stripe 1" />
      <path
         style="display:inline;fill:#b77135;fill-opacity:1;stroke:none;stroke-width:20.4588;stroke-dasharray:none;stroke-opacity:1"
         d="m -564.24785,478.87868 c 0,0 -0.22267,20.15678 -0.35356,29.24585 -0.16459,11.429 0.54234,22.26803 2.2981,35.13953 0.85298,6.25318 5.07213,16.82273 11.13693,17.17942 6.06481,0.35667 10.02196,-8.98327 10.96016,-17.20902 1.57288,-13.79039 1.12109,-21.99596 1.41421,-33.21697 0.28422,-10.88056 -0.17677,-31.24283 -0.17677,-31.24283 z"
         id="path4"
         sodipodi:nodetypes="cssssscc"
         inkscape:label="stripe 2" />
      <path
         style="display:inline;fill:#b77135;fill-opacity:1;stroke:none;stroke-width:18;stroke-dasharray:none;stroke-opacity:1"
         d="m -522.52855,481.60308 c 0,0 -0.20246,15.44759 0.17677,23.15775 0.51159,10.40109 0.99716,22.776 2.82843,31.28947 1.64653,7.6546 4.95099,11.68195 9.72272,12.1976 4.77173,0.51564 6.62532,-3.48864 8.48528,-7.42463 4.42722,-9.36875 3.829,-20.88706 3.88909,-31.64302 0.0452,-8.09008 -1.41421,-25.63262 -1.41421,-25.63262 z"
         id="path5"
         sodipodi:nodetypes="csszsscc"
         inkscape:label="stripe 3" />
      <path
         id="path16"
         style="display:inline;fill:none;fill-opacity:1;stroke:#29291d;stroke-width:18;stroke-dasharray:none;stroke-opacity:1"
         d="m -713.84236,427.21219 c -0.84596,0.0445 -1.66065,0.15761 -2.4414,0.3418 -24.98411,5.89394 -21.7304,101.99233 -14.51758,133.27929 0.95112,4.12566 -8.65551,19.70029 -13.66602,33.90039 -10.31243,29.2261 -7.12932,69.01156 -3.16796,85.59961 11.61194,48.62454 58.44052,76.73099 75.91015,85.8711 13.16226,6.88649 33.88116,16.54166 57.07617,24.3164 29.48549,9.88326 59.58102,18.05274 63.47461,18.05274 3.89359,0 33.99108,-8.16948 63.47657,-18.05274 23.19501,-7.77474 43.91195,-17.42991 57.07421,-24.3164 17.46963,-9.14011 64.30017,-37.24656 75.91211,-85.8711 3.96136,-16.58805 7.14446,-56.37351 -3.16796,-85.59961 -5.01052,-14.2001 -14.61714,-29.77473 -13.66602,-33.90039 7.21282,-31.28696 10.46653,-127.38535 -14.51758,-133.27929 -24.98412,-5.89394 -84.77247,61.94593 -88.72266,62.84375 -3.95017,0.89782 -30.47608,-11.31038 -76.38912,-11.65821 -45.91304,0.34783 -72.43804,12.55603 -76.38822,11.65821 -3.82674,-0.86977 -60.05448,-64.56403 -86.2793,-63.18555 z"
         inkscape:label="outline"
         sodipodi:nodetypes="scssssssssssssscss" />
      <path
         style="fill:#bf6c42;fill-opacity:1;stroke:none;stroke-width:18;stroke-dasharray:none;stroke-opacity:1"
         d="m -700.73884,476.33133 c -4.94389,1.30045 -6.79824,62.91322 -1,63.125 4.89759,0.17889 7.4182,-6.87534 21.17395,-17.34097 13.75575,-10.46563 20.78545,-10.60656 20.69217,-13.29659 -0.18298,-5.27652 -30.07442,-35.3261 -40.86612,-32.48744 z"
         id="path2"
         sodipodi:nodetypes="sszss"
         inkscape:label="ear" />
      <path
         style="fill:none;fill-opacity:1;stroke:#29291d;stroke-width:15;stroke-linecap:round;stroke-dasharray:none;stroke-opacity:1"
         d="m -786.45616,666.86506 c 24.39518,1.06066 49.49747,4.24264 74.24621,9.19239"
         id="path6"
         sodipodi:nodetypes="cc"
         inkscape:label="whisker 1" />
      <path
         style="fill:none;fill-opacity:1;stroke:#29291d;stroke-width:15;stroke-linecap:round;stroke-dasharray:none;stroke-opacity:1"
         d="m -767.01072,715.30187 c 22.27386,-6.36396 41.0122,-9.89949 62.57895,-10.6066"
         id="path7"
         sodipodi:nodetypes="cc"
         inkscape:label="whisker 2" />
      <path
         style="fill:none;fill-opacity:1;stroke:#29291d;stroke-width:15;stroke-linecap:round;stroke-dasharray:none;stroke-opacity:1"
         d="m -325.99789,668.52021 c -24.39518,1.06066 -37.28149,2.99284 -62.03023,7.94259"
         id="path8"
         sodipodi:nodetypes="cc"
         inkscape:label="whisker 3" />
      <path
         style="fill:none;fill-opacity:1;stroke:#29291d;stroke-width:15;stroke-linecap:round;stroke-dasharray:none;stroke-opacity:1"
         d="m -337.79691,715.8322 c -22.27386,-6.36396 -39.50094,-10.89933 -61.06769,-11.60644"
         id="path9"
         sodipodi:nodetypes="cc"
         inkscape:label="whisker 4" />
      <path
         id="path10"
         style="fill:#29291d;fill-opacity:1;stroke:none;stroke-width:15;stroke-linecap:round;stroke-dasharray:none;stroke-opacity:1"
         d="m -656.04157,579.01883 c -18.65472,-0.33589 -45.2884,0.40244 -65.61133,3.28711 -12.63182,1.79298 -34.15854,1.25553 -34.39844,15.26172 -0.14082,8.22139 13.70042,11.17758 21.92188,11.31445 7.99983,0.13318 14.53606,1.8881 16.26171,4.94922 1.7904,3.17599 3.48724,42.82399 17.67774,56.56836 12.65165,12.2539 33.30165,13.83555 50.91211,14.14258 19.63268,0.34229 45.89296,-1.07159 59.76953,-16.67774 17.90953,-20.14176 23.58398,-50.95312 38.33398,-51.20312 14.75,0.25 20.42446,31.06136 38.33399,51.20312 13.87657,15.60615 40.1349,17.02003 59.76758,16.67774 17.61046,-0.30703 38.26045,-1.88868 50.9121,-14.14258 14.19051,-13.74437 15.88734,-53.39237 17.67774,-56.56836 1.72565,-3.06112 8.26384,-4.81604 16.26367,-4.94922 8.22146,-0.13687 22.06074,-3.09306 21.91992,-11.31445 -0.2399,-14.00619 -21.76661,-13.46874 -34.39843,-15.26172 -20.32293,-2.88467 -46.95661,-3.623 -65.61133,-3.28711 -72.31211,1.30201 -86.86524,13.09961 -104.86524,13.59961 -18,-0.5 -32.55507,-12.2976 -104.86718,-13.59961 z"
         inkscape:label="sunglasses" />
      <path
         style="fill:#bf6c42;fill-opacity:1;stroke:none;stroke-width:18;stroke-dasharray:none;stroke-opacity:1"
         d="m -403.01586,476.8062 c 4.94389,1.30045 6.79824,62.91322 1,63.125 -4.89759,0.17889 -7.4182,-6.87534 -21.17395,-17.34097 -13.75575,-10.46563 -20.78545,-10.60656 -20.69217,-13.29659 0.18298,-5.27652 30.07442,-35.3261 40.86612,-32.48744 z"
         id="path11"
         sodipodi:nodetypes="sszss"
         inkscape:label="ear" />
      <path
         id="path12"
         style="baseline-shift:baseline;display:inline;overflow:visible;opacity:1;vector-effect:none;fill:#29291d;fill-opacity:1;stroke-linecap:round;enable-background:accumulate;stop-color:#000000;stop-opacity:1"
         d="m -554.83259,664.63211 c -3.5744,0.12211 -7.05809,0.38492 -10.08594,0.78516 -3.02785,0.40024 -5.41791,0.77136 -7.77734,1.85351 -5.07158,2.32606 -8.00563,8.6934 -5.43945,14.10938 2.2136,4.67187 6.67038,6.27548 9.86328,7.34179 3.19289,1.06633 5.68524,1.96773 6.49414,2.70313 2.4103,2.19129 3.72232,3.4492 4.03125,8.28516 0.18915,2.96098 -1.922,6.52957 -3.50977,8.76367 -2.99467,1.95421 -7.56208,4.50347 -12.90625,6.04492 -9.29095,2.67984 -19.57275,2.93801 -30.63086,-8.81055 0.0394,-3.30608 -2.09086,-6.24794 -5.24414,-7.24218 -4.02619,-0.97358 -8.07928,1.50112 -9.05273,5.52734 0,0 -0.33004,1.29462 -0.40625,2.92773 -0.0762,1.63312 -0.5785,4.30062 2.4375,7.70118 15.02193,16.93721 33.82571,18.1243 47.05469,14.30859 7.98703,-2.30375 13.53229,-5.60569 17.41796,-8.28906 4.00003,2.80976 9.7896,6.34953 18.22071,8.79492 13.54467,3.92855 32.78839,2.26727 46.64648,-16.16992 2.26892,-3.01864 1.9473,-4.24522 2.18945,-5.51367 0.24215,-1.26844 0.3418,-2.32813 0.3418,-2.32813 0.40252,-4.12277 -2.61352,-7.79118 -6.73633,-8.19336 -4.12208,-0.40256 -7.79018,2.61236 -8.19336,6.73438 0,0 -0.0518,0.44725 -0.14062,0.92968 -10.29373,13.22148 -20.29877,12.92816 -29.92969,10.13477 -4.39305,-1.27418 -8.36252,-3.27423 -11.40625,-5.09375 -1.69232,-1.98083 -5.4205,-6.78649 -5.2832,-10.53906 0.22848,-6.245 0.89584,-6.09302 3.47656,-8.65625 1.2331,-1.22474 2.36023,-1.67736 4.63281,-2.4043 2.27258,-0.72694 5.52717,-1.59473 9.18946,-3.70508 3.93603,-2.26808 4.82648,-7.39787 3.41601,-10.99219 -1.41046,-3.59432 -4.73048,-6.51693 -9.21484,-7.71679 -5.14238,-1.37592 -12.30628,-1.53523 -19.45508,-1.29102 z m -49.81641,42 c 0.18448,0.59873 0.14042,0.95576 0.13477,0.98633 10e-4,-0.0263 0.004,-0.0996 0.004,-0.0996 -0.0285,-0.29808 -0.0748,-0.59418 -0.13868,-0.88672 z"
         sodipodi:nodetypes="ssssssscscccssscsssccccscssssssscccc"
         inkscape:label="mouthnose" />
      <path
         style="fill:#ffffff;fill-opacity:1;stroke:none;stroke-width:10;stroke-linecap:round;stroke-dasharray:none;stroke-opacity:1"
         d="m -656.70206,600.22025 c -14.67247,-1.94455 -37.86523,-1.23308 -40.48187,2.47487 -2.61664,3.70796 -1.06066,24.92551 4.41942,40.1283 9.72272,-13.43503 22.98097,-30.58235 36.06245,-42.60317 z"
         id="path14"
         sodipodi:nodetypes="czcc" />
      <path
         style="fill:#ffffff;fill-opacity:1;stroke:none;stroke-width:11.8007;stroke-linecap:round;stroke-dasharray:none;stroke-opacity:1"
         d="m -463.50248,599.92247 c -19.96615,-0.70372 -42.37122,0.21715 -45.45903,4.59279 -3.08781,4.37564 -4.43363,27.99957 2.03324,45.93989 11.13693,-16.44023 27.33911,-37.62798 43.42579,-50.53268 z"
         id="path15"
         sodipodi:nodetypes="czcc" />
    </g>
  </g>
</svg>
